<svg
   xmlns="http://www.w3.org/2000/svg"
   version="1.1"
   width="100"
   height="100">
  <g
     transform="translate(0,36)"
     id="layer1">
    <path
       d="m 14.363636,15.090909 a 5.090909,5.090909 0 1 1 -10.181818,0 5.090909,5.090909 0 1 1 10.181818,0 z"
       transform="translate(4,12)"
       id="path2993"
       style="fill:#008080;fill-opacity:0.19607843" />
    <path
       d="m 14.363636,15.090909 a 5.090909,5.090909 0 1 1 -10.181818,0 5.090909,5.090909 0 1 1 10.181818,0 z"
       transform="translate(27.636364,11.818182)"
       id="path2993-2"
       style="fill:#ec5328;fill-opacity:0.19607843" />
    <path
       d="m 14.363636,15.090909 a 5.090909,5.090909 0 1 1 -10.181818,0 5.090909,5.090909 0 1 1 10.181818,0 z"
       transform="translate(3.4545456,35.454545)"
       id="path2993-9"
       style="fill:#e7ed00;fill-opacity:0.19607843" />
    <path
       d="m 14.363636,15.090909 a 5.090909,5.090909 0 1 1 -10.181818,0 5.090909,5.090909 0 1 1 10.181818,0 z"
       transform="translate(28,35.454546)"
       id="path2993-25"
       style="fill:#ff80e3;fill-opacity:0.19607843" />
    <path
       d="m 14.363636,15.090909 a 5.090909,5.090909 0 1 1 -10.181818,0 5.090909,5.090909 0 1 1 10.181818,0 z"
       transform="translate(3.4545459,-37.454546)"
       id="path2993-0"
       style="fill:#00f880;fill-opacity:0.20231214" />
    <path
       d="m 14.363636,15.090909 a 5.090909,5.090909 0 1 1 -10.181818,0 5.090909,5.090909 0 1 1 10.181818,0 z"
       transform="translate(27.090909,-37.636364)"
       id="path2993-2-8"
       style="fill:#1d00b8;fill-opacity:0.19607843" />
    <path
       d="m 14.363636,15.090909 a 5.090909,5.090909 0 1 1 -10.181818,0 5.090909,5.090909 0 1 1 10.181818,0 z"
       transform="translate(2.9090915,-14.000001)"
       id="path2993-9-9"
       style="fill:#e7a225;fill-opacity:0.19607843" />
    <path
       d="m 14.363636,15.090909 a 5.090909,5.090909 0 1 1 -10.181818,0 5.090909,5.090909 0 1 1 10.181818,0 z"
       transform="translate(27.454545,-14)"
       id="path2993-25-2"
       style="fill:#ff00ff;fill-opacity:0.19607843" />
    <path
       d="m 14.363636,15.090909 a 5.090909,5.090909 0 1 1 -10.181818,0 5.090909,5.090909 0 1 1 10.181818,0 z"
       transform="translate(51.090909,-38.545454)"
       id="path2993-90"
       style="fill:#ffff00;fill-opacity:0.19607843" />
    <path
       d="m 14.363636,15.090909 a 5.090909,5.090909 0 1 1 -10.181818,0 5.090909,5.090909 0 1 1 10.181818,0 z"
       transform="translate(76.727273,-38.727272)"
       id="path2993-2-4"
       style="fill:#005328;fill-opacity:0.19607843" />
    <path
       d="m 14.363636,15.090909 a 5.090909,5.090909 0 1 1 -10.181818,0 5.090909,5.090909 0 1 1 10.181818,0 z"
       transform="translate(50.545455,-15.09091)"
       id="path2993-9-6"
       style="fill:#e70000;fill-opacity:0.19607843" />
    <path
       d="m 14.363636,15.090909 a 5.090909,5.090909 0 1 1 -10.181818,0 5.090909,5.090909 0 1 1 10.181818,0 z"
       transform="translate(77.090909,-15.090909)"
       id="path2993-25-5"
       style="fill:#387cff;fill-opacity:0.19607843" />
    <path
       d="m 14.363636,15.090909 a 5.090909,5.090909 0 1 1 -10.181818,0 5.090909,5.090909 0 1 1 10.181818,0 z"
       transform="translate(51.454546,10.727272)"
       id="path2993-1"
       style="fill:#00ff00;fill-opacity:0.19607843" />
    <path
       d="m 14.363636,15.090909 a 5.090909,5.090909 0 1 1 -10.181818,0 5.090909,5.090909 0 1 1 10.181818,0 z"
       transform="translate(77.09091,10.545454)"
       id="path2993-2-7"
       style="fill:#000060;fill-opacity:0.19607843" />
    <path
       d="m 14.363636,15.090909 a 5.090909,5.090909 0 1 1 -10.181818,0 5.090909,5.090909 0 1 1 10.181818,0 z"
       transform="translate(50.909092,34.181817)"
       id="path2993-9-62"
       style="fill:#00ffff;fill-opacity:0.19607843" />
    <path
       d="m 14.363636,15.090909 a 5.090909,5.090909 0 1 1 -10.181818,0 5.090909,5.090909 0 1 1 10.181818,0 z"
       transform="translate(77.454546,34.181818)"
       id="path2993-25-4"
       style="fill:#ff4a00;fill-opacity:0.19607843" />
  </g>
</svg>
